<?xml version="1.0" standalone="no"?>
<!DOCTYPE svg PUBLIC "-//W3C//DTD SVG 20010904//EN"
 "http://www.w3.org/TR/2001/REC-SVG-20010904/DTD/svg10.dtd">
<svg version="1.0" xmlns="http://www.w3.org/2000/svg"
 width="104.000000pt" height="104.000000pt" viewBox="0 0 104.000000 104.000000"
 preserveAspectRatio="xMidYMid meet">
<metadata>
Created by potrace 1.14, written by Peter Selinger 2001-2017
</metadata>
<g transform="translate(0.000000,104.000000) scale(0.100000,-0.100000)"
fill="#000000" stroke="none">
<path d="M81 960 c-10 -6 -14 -35 -13 -106 0 -55 0 -106 1 -114 1 -13 54 -15
424 -14 232 1 431 2 443 3 20 1 21 6 20 109 -1 59 -5 113 -9 119 -6 10 -105
13 -431 12 -232 0 -428 -4 -435 -9z m217 -78 c24 -16 22 -49 -3 -62 -43 -23
-73 20 -39 54 17 18 24 19 42 8z m213 -8 c21 -19 14 -51 -14 -60 -15 -5 -26 0
-38 15 -17 21 -17 23 -1 41 20 24 30 25 53 4z"/>
<path d="M71 638 c-9 -24 -6 -546 3 -555 10 -11 863 -10 873 0 4 5 9 80 9 167
1 87 5 163 9 169 3 6 2 11 -3 11 -10 0 -9 30 2 48 4 6 3 12 -2 12 -10 0 -9 30
2 48 4 6 3 12 -2 12 -4 0 -7 20 -6 45 1 25 -2 48 -8 51 -5 3 -203 7 -440 8
-396 1 -431 0 -437 -16z m478 -114 c17 -19 28 -24 49 -20 40 9 57 -7 54 -49
-2 -29 3 -41 23 -56 33 -26 32 -35 -7 -73 -18 -17 -33 -31 -33 -32 0 0 5 -7
11 -15 7 -9 9 -22 3 -36 -6 -18 -14 -21 -43 -17 -29 3 -40 -1 -58 -21 -29 -33
-48 -32 -82 7 -15 18 -30 27 -34 22 -4 -6 -17 -11 -29 -11 -24 -2 -30 13 -32
67 0 13 -9 31 -19 40 -22 18 -36 50 -21 50 6 0 7 5 4 10 -3 6 1 10 9 10 21 0
41 39 28 52 -11 11 -5 39 12 50 6 4 26 5 44 2 21 -4 32 -2 32 5 0 7 6 9 13 5
6 -4 9 -4 5 1 -11 11 11 35 31 35 10 0 27 -12 40 -26z"/>
<path d="M485 430 c-4 -6 -10 -8 -14 -5 -8 4 -35 -41 -35 -60 0 -28 30 -66 58
-74 60 -15 110 53 81 109 -18 34 -76 53 -90 30z"/>
</g>
</svg>
